<?xml version="1.0" encoding="utf-8"?>
<svg width="189" height="40" viewBox="0 0 102.391 37.268" fill="none" xmlns="http://www.w3.org/2000/svg">
  <path fill-rule="evenodd" clip-rule="evenodd" d="M7.5 10C7.5 8.61929 8.61929 7.5 10 7.5H13.75C15.1307 7.5 16.25 8.61929 16.25 10V30C16.25 31.3807 15.1307 32.5 13.75 32.5H10C8.61929 32.5 7.5 31.3807 7.5 30V10ZM13.75 10H10V30H13.75V10Z" fill="#00B37E"/>
  <path fill-rule="evenodd" clip-rule="evenodd" d="M23.75 10C23.75 8.61929 24.8693 7.5 26.25 7.5H30C31.3807 7.5 32.5 8.61929 32.5 10V30C32.5 31.3807 31.3807 32.5 30 32.5H26.25C24.8693 32.5 23.75 31.3807 23.75 30V10ZM30 10H26.25V30H30V10Z" fill="#00B37E"/>
  <path fill-rule="evenodd" clip-rule="evenodd" d="M30 12.5C30 11.8096 30.5596 11.25 31.25 11.25H35C35.663 11.25 36.2989 11.5134 36.7678 11.9822C37.2366 12.4511 37.5 13.087 37.5 13.75V26.25C37.5 26.913 37.2366 27.5489 36.7678 28.0178C36.2989 28.4866 35.663 28.75 35 28.75H31.25C30.5596 28.75 30 28.1904 30 27.5C30 26.8096 30.5596 26.25 31.25 26.25H35L35 13.75L31.25 13.75C30.5596 13.75 30 13.1904 30 12.5Z" fill="#00B37E"/>
  <path fill-rule="evenodd" clip-rule="evenodd" d="M3.23223 11.9822C3.70107 11.5134 4.33696 11.25 5 11.25H8.75C9.44036 11.25 10 11.8096 10 12.5C10 13.1904 9.44036 13.75 8.75 13.75L5 13.75V26.25H8.75C9.44036 26.25 10 26.8096 10 27.5C10 28.1904 9.44036 28.75 8.75 28.75H5C4.33696 28.75 3.70108 28.4866 3.23223 28.0178C2.76339 27.5489 2.5 26.913 2.5 26.25V13.75C2.5 13.087 2.76339 12.4511 3.23223 11.9822Z" fill="#00B37E"/>
  <path fill-rule="evenodd" clip-rule="evenodd" d="M13.75 20C13.75 19.3096 14.3096 18.75 15 18.75H25C25.6904 18.75 26.25 19.3096 26.25 20C26.25 20.6904 25.6904 21.25 25 21.25H15C14.3096 21.25 13.75 20.6904 13.75 20Z" fill="#00B37E"/>
  <path fill-rule="evenodd" clip-rule="evenodd" d="M35 20C35 19.3096 35.5596 18.75 36.25 18.75H38.75C39.4404 18.75 40 19.3096 40 20C40 20.6904 39.4404 21.25 38.75 21.25H36.25C35.5596 21.25 35 20.6904 35 20Z" fill="#00B37E"/>
  <path fill-rule="evenodd" clip-rule="evenodd" d="M0 20C0 19.3096 0.559644 18.75 1.25 18.75H3.75C4.44036 18.75 5 19.3096 5 20C5 20.6904 4.44036 21.25 3.75 21.25H1.25C0.559644 21.25 0 20.6904 0 20Z" fill="#00B37E"/>
  <path d="M 61.891 17.73 L 61.891 25.618 C 61.582 25.992 61.103 26.398 60.456 26.835 C 59.809 27.264 58.975 27.633 57.954 27.943 C 56.933 28.253 55.698 28.407 54.249 28.407 C 52.964 28.407 51.792 28.198 50.735 27.779 C 49.678 27.35 48.766 26.726 48.001 25.906 C 47.244 25.085 46.661 24.083 46.251 22.898 C 45.841 21.704 45.636 20.341 45.636 18.81 L 45.636 17.566 C 45.636 16.034 45.832 14.672 46.223 13.478 C 46.625 12.284 47.194 11.277 47.932 10.456 C 48.671 9.636 49.55 9.012 50.571 8.583 C 51.592 8.155 52.727 7.941 53.975 7.941 C 55.707 7.941 57.129 8.223 58.241 8.788 C 59.353 9.344 60.201 10.119 60.784 11.113 C 61.376 12.097 61.741 13.227 61.878 14.503 L 57.899 14.503 C 57.799 13.829 57.608 13.241 57.325 12.74 C 57.042 12.238 56.637 11.846 56.108 11.564 C 55.589 11.281 54.914 11.14 54.085 11.14 C 53.401 11.14 52.791 11.281 52.253 11.564 C 51.724 11.837 51.278 12.243 50.913 12.781 C 50.548 13.318 50.27 13.984 50.079 14.777 C 49.888 15.57 49.792 16.49 49.792 17.538 L 49.792 18.81 C 49.792 19.849 49.892 20.769 50.093 21.572 C 50.293 22.365 50.589 23.034 50.981 23.581 C 51.382 24.119 51.875 24.525 52.458 24.798 C 53.041 25.072 53.72 25.208 54.495 25.208 C 55.142 25.208 55.68 25.154 56.108 25.044 C 56.546 24.935 56.897 24.803 57.161 24.648 C 57.434 24.484 57.644 24.329 57.79 24.183 L 57.79 20.656 L 54.044 20.656 L 54.044 17.73 L 61.891 17.73 Z M 69.343 26.466 L 73.266 13.341 L 77.491 13.341 L 71.544 30.363 C 71.416 30.736 71.243 31.137 71.024 31.566 C 70.815 31.994 70.528 32.4 70.163 32.782 C 69.807 33.174 69.356 33.493 68.809 33.74 C 68.272 33.986 67.611 34.109 66.827 34.109 C 66.453 34.109 66.148 34.086 65.911 34.04 C 65.674 33.995 65.391 33.931 65.063 33.849 L 65.063 30.964 C 65.164 30.964 65.268 30.964 65.378 30.964 C 65.487 30.973 65.592 30.978 65.692 30.978 C 66.212 30.978 66.636 30.919 66.964 30.8 C 67.292 30.682 67.556 30.499 67.757 30.253 C 67.957 30.016 68.117 29.706 68.235 29.324 L 69.343 26.466 Z M 67.702 13.341 L 70.915 24.06 L 71.475 28.23 L 68.796 28.517 L 63.477 13.341 L 67.702 13.341 Z M 83.001 16.404 L 83.001 28.134 L 79.05 28.134 L 79.05 13.341 L 82.755 13.341 L 83.001 16.404 Z M 82.454 20.218 L 81.36 20.218 C 81.36 19.188 81.483 18.24 81.729 17.374 C 81.985 16.499 82.354 15.743 82.837 15.105 C 83.329 14.458 83.935 13.956 84.655 13.601 C 85.375 13.245 86.209 13.068 87.157 13.068 C 87.813 13.068 88.415 13.168 88.962 13.368 C 89.509 13.56 89.978 13.865 90.37 14.284 C 90.771 14.695 91.081 15.232 91.3 15.898 C 91.518 16.554 91.628 17.342 91.628 18.263 L 91.628 28.134 L 87.69 28.134 L 87.69 18.7 C 87.69 18.026 87.599 17.506 87.417 17.142 C 87.235 16.777 86.975 16.522 86.638 16.376 C 86.309 16.23 85.913 16.157 85.448 16.157 C 84.938 16.157 84.491 16.262 84.108 16.472 C 83.735 16.682 83.425 16.973 83.179 17.347 C 82.932 17.712 82.75 18.14 82.632 18.632 C 82.513 19.124 82.454 19.653 82.454 20.218 Z M 91.259 19.767 L 89.85 19.945 C 89.85 18.978 89.969 18.081 90.206 17.251 C 90.452 16.422 90.812 15.693 91.286 15.064 C 91.769 14.435 92.366 13.947 93.077 13.601 C 93.788 13.245 94.608 13.068 95.538 13.068 C 96.249 13.068 96.896 13.172 97.479 13.382 C 98.063 13.583 98.559 13.906 98.97 14.353 C 99.389 14.79 99.708 15.365 99.927 16.075 C 100.154 16.786 100.268 17.657 100.268 18.687 L 100.268 28.134 L 96.317 28.134 L 96.317 18.687 C 96.317 18.003 96.226 17.484 96.044 17.128 C 95.871 16.764 95.615 16.513 95.278 16.376 C 94.95 16.23 94.558 16.157 94.102 16.157 C 93.628 16.157 93.214 16.253 92.858 16.445 C 92.503 16.627 92.207 16.882 91.97 17.21 C 91.733 17.538 91.555 17.921 91.436 18.359 C 91.318 18.787 91.259 19.256 91.259 19.767 Z" style="fill: rgb(255, 255, 255);"/>
</svg>